<?xml version="1.0" encoding="UTF-8" standalone="no"?>
<svg
   xmlns:dc="http://purl.org/dc/elements/1.1/"
   xmlns:cc="http://creativecommons.org/ns#"
   xmlns:rdf="http://www.w3.org/1999/02/22-rdf-syntax-ns#"
   xmlns:svg="http://www.w3.org/2000/svg"
   xmlns="http://www.w3.org/2000/svg"
   width="128"
   height="114.12264"
   viewBox="0 0 33.866672 30.194948"
   version="1.1"
   id="svg8">
  <defs
     id="defs2" />
  <metadata
     id="metadata5">
    <rdf:RDF>
      <cc:Work
         rdf:about="">
        <dc:format>image/svg+xml</dc:format>
        <dc:type
           rdf:resource="http://purl.org/dc/dcmitype/StillImage" />
        <dc:title></dc:title>
      </cc:Work>
    </rdf:RDF>
  </metadata>
  <g
     id="layer1"
     transform="translate(1.3753395e-6,-264.96921)">
    <g
       id="g15404"
       transform="matrix(0.95,0,0,0.95,91.185898,-193.06077)">
      <path
         id="path15265"
         d="m -77.624722,492.27448 -1.068152,0.10232 v 2.37765 c -0.990518,0.20799 -1.757797,1.03034 -1.885672,2.0474 l -0.169498,0.016 v 1.06196 l 0.271817,-0.0258 c 0.07668,0.23077 0.188254,0.44564 0.327113,0.63976 0.179964,0.15174 0.343786,0.32168 0.489376,0.50694 0.118845,0.0919 0.24593,0.17328 0.380854,0.24183 l 2.532145,-0.24079 c 0.116686,-0.09 0.226523,-0.18873 0.325046,-0.29819 l 0.401526,0.22945 0.117822,-0.0113 c 0.129394,-0.31314 0.297151,-0.59688 0.503846,-0.85318 l -0.503846,-0.28784 c 0.06401,-0.21582 0.09973,-0.44355 0.09973,-0.67955 0,-1.12218 -0.778343,-2.0654 -1.822111,-2.32493 z m -6.29884,4.84519 -0.553453,0.0527 c 0.07072,0.26977 0.110069,0.55216 0.110069,0.84492 0,0.0398 -0.01514,0.0739 -0.01654,0.11316 l 0.143145,0.0817 0.06563,-0.006 c 0.08203,-0.0505 0.164024,-0.0979 0.251146,-0.14211 z"
         style="color:#000000;font-style:normal;font-variant:normal;font-weight:normal;font-stretch:normal;font-size:medium;line-height:normal;font-family:sans-serif;font-variant-ligatures:normal;font-variant-position:normal;font-variant-caps:normal;font-variant-numeric:normal;font-variant-alternates:normal;font-feature-settings:normal;text-indent:0;text-align:start;text-decoration:none;text-decoration-line:none;text-decoration-style:solid;text-decoration-color:#000000;letter-spacing:normal;word-spacing:normal;text-transform:none;writing-mode:lr-tb;direction:ltr;text-orientation:mixed;dominant-baseline:auto;baseline-shift:baseline;text-anchor:start;white-space:normal;shape-padding:0;clip-rule:nonzero;display:inline;overflow:visible;visibility:visible;opacity:1;isolation:auto;mix-blend-mode:normal;color-interpolation:sRGB;color-interpolation-filters:linearRGB;solid-color:#000000;solid-opacity:1;vector-effect:none;fill:#c8c8c8;fill-opacity:1;fill-rule:nonzero;stroke:none;stroke-width:1.0668;stroke-linecap:round;stroke-linejoin:miter;stroke-miterlimit:4;stroke-dasharray:12.80160072, 12.80160072;stroke-dashoffset:0;stroke-opacity:1;color-rendering:auto;image-rendering:auto;shape-rendering:auto;text-rendering:auto;enable-background:accumulate" />
      <path
         id="path15267"
         transform="matrix(0.26458334,0,0,0.26458334,2.9040527e-7,236.04001)"
         d="m -295.5625,939.82812 c -4.6085,0 -8.42458,3.47143 -8.98633,7.93165 l -27.41406,2.60937 0.1875,1.98633 h -2.00391 v 28.91992 c -4.11401,0.8569 -7.22656,4.51448 -7.22656,8.875 0,4.99317 4.07913,9.07227 9.07227,9.07227 2.66674,0 5.06342,-1.17073 6.72461,-3.01563 l 12.01757,6.85937 v 27.7637 c -4.114,0.8569 -7.22656,4.5143 -7.22656,8.875 0,4.9931 4.07913,9.0644 9.07227,9.0644 4.99313,0 9.0664,-4.0713 9.0664,-9.0644 0,-4.2495 -2.95366,-7.8222 -6.91015,-8.7949 v -27.1797 l 21.63281,-2.0645 c 0.39171,-1.431 0.84033,-2.8166 1.35547,-4.14647 l -24.54883,2.33594 -12.49609,-7.13672 c 0.24196,-0.8157 0.3789,-1.67628 0.3789,-2.56836 0,-4.24951 -2.95366,-7.82211 -6.91015,-8.79492 v -27.17969 l 25.61523,-2.43945 c 1.19801,3.60797 4.59993,6.22851 8.59961,6.22851 2.66696,0 5.06341,-1.17038 6.72461,-3.01562 l 12.02539,6.86523 v 22.51563 c 1.35066,-1.07861 2.68116,-2.06052 4.00195,-2.95117 v -18.91407 l 25.60547,-2.4375 c 1.19626,3.60915 4.59971,6.22657 8.60156,6.22657 4.99315,0 9.07227,-4.07132 9.07227,-9.06446 0,-4.99313 -4.07912,-9.07226 -9.07227,-9.07226 -4.60574,0 -8.41907,3.47429 -8.98437,7.93164 l -26.78125,2.54883 -12.50586,-7.13868 c 0.24159,-0.81509 0.37695,-1.67508 0.37695,-2.5664 0,-4.99314 -4.07132,-9.06445 -9.06445,-9.06446 z m 20.74609,20.81836 0.002,0.008 h -0.004 z"
         style="color:#000000;font-style:normal;font-variant:normal;font-weight:normal;font-stretch:normal;font-size:medium;line-height:normal;font-family:sans-serif;font-variant-ligatures:normal;font-variant-position:normal;font-variant-caps:normal;font-variant-numeric:normal;font-variant-alternates:normal;font-feature-settings:normal;text-indent:0;text-align:start;text-decoration:none;text-decoration-line:none;text-decoration-style:solid;text-decoration-color:#000000;letter-spacing:normal;word-spacing:normal;text-transform:none;writing-mode:lr-tb;direction:ltr;text-orientation:mixed;dominant-baseline:auto;baseline-shift:baseline;text-anchor:start;white-space:normal;shape-padding:0;clip-rule:nonzero;display:inline;overflow:visible;visibility:visible;opacity:1;isolation:auto;mix-blend-mode:normal;color-interpolation:sRGB;color-interpolation-filters:linearRGB;solid-color:#000000;solid-opacity:1;vector-effect:none;fill:#969696;fill-opacity:1;fill-rule:nonzero;stroke:none;stroke-width:3.99999976;stroke-linecap:butt;stroke-linejoin:miter;stroke-miterlimit:4;stroke-dasharray:none;stroke-dashoffset:0;stroke-opacity:1;color-rendering:auto;image-rendering:auto;shape-rendering:auto;text-rendering:auto;enable-background:accumulate" />
      <path
         style="color:#000000;font-style:normal;font-variant:normal;font-weight:normal;font-stretch:normal;font-size:medium;line-height:normal;font-family:sans-serif;font-variant-ligatures:normal;font-variant-position:normal;font-variant-caps:normal;font-variant-numeric:normal;font-variant-alternates:normal;font-feature-settings:normal;text-indent:0;text-align:start;text-decoration:none;text-decoration-line:none;text-decoration-style:solid;text-decoration-color:#000000;letter-spacing:normal;word-spacing:normal;text-transform:none;writing-mode:lr-tb;direction:ltr;text-orientation:mixed;dominant-baseline:auto;baseline-shift:baseline;text-anchor:start;white-space:normal;shape-padding:0;clip-rule:nonzero;display:inline;overflow:visible;visibility:visible;opacity:1;isolation:auto;mix-blend-mode:normal;color-interpolation:sRGB;color-interpolation-filters:linearRGB;solid-color:#000000;solid-opacity:1;vector-effect:none;fill:#646464;fill-opacity:1;fill-rule:nonzero;stroke:none;stroke-width:1.05833328;stroke-linecap:butt;stroke-linejoin:miter;stroke-miterlimit:4;stroke-dasharray:none;stroke-dashoffset:0;stroke-opacity:1;color-rendering:auto;image-rendering:auto;shape-rendering:auto;text-rendering:auto;enable-background:accumulate"
         d="m -72.753616,487.81427 c -1.218779,0 -2.227773,0.91717 -2.377115,2.09651 l -7.253822,0.6904 0.04961,0.5271 h -0.530202 v 7.65224 c -1.088498,0.2267 -1.912027,1.19444 -1.912027,2.34818 0,1.3211 1.07927,2.3983 2.400371,2.3983 1.321099,0 2.398819,-1.0772 2.398819,-2.3983 0,-1.12435 -0.781489,-2.06962 -1.828311,-2.32699 v -7.19129 l 6.776847,-0.64699 c 0.316614,0.95474 1.217137,1.64745 2.27583,1.64745 1.321101,0 2.398303,-1.07722 2.398303,-2.39831 0,-1.3211 -1.077202,-2.3983 -2.398303,-2.3983 z"
         id="path15269" />
      <path
         style="color:#000000;font-style:normal;font-variant:normal;font-weight:normal;font-stretch:normal;font-size:medium;line-height:normal;font-family:sans-serif;font-variant-ligatures:normal;font-variant-position:normal;font-variant-caps:normal;font-variant-numeric:normal;font-variant-alternates:normal;font-feature-settings:normal;text-indent:0;text-align:start;text-decoration:none;text-decoration-line:none;text-decoration-style:solid;text-decoration-color:#000000;letter-spacing:normal;word-spacing:normal;text-transform:none;writing-mode:lr-tb;direction:ltr;text-orientation:mixed;dominant-baseline:auto;baseline-shift:baseline;text-anchor:start;white-space:normal;shape-padding:0;clip-rule:nonzero;display:inline;overflow:visible;visibility:visible;opacity:1;isolation:auto;mix-blend-mode:normal;color-interpolation:sRGB;color-interpolation-filters:linearRGB;solid-color:#000000;solid-opacity:1;vector-effect:none;fill:#ff9e39;fill-opacity:1;fill-rule:nonzero;stroke:none;stroke-width:1.05833328;stroke-linecap:butt;stroke-linejoin:miter;stroke-miterlimit:4;stroke-dasharray:none;stroke-dashoffset:0;stroke-opacity:1;color-rendering:auto;image-rendering:auto;shape-rendering:auto;text-rendering:auto;enable-background:accumulate"
         d="m -93.138418,482.53139 c -0.232024,-0.005 -0.462899,0.0245 -0.685231,0.0853 -0.592879,0.16193 -1.125631,0.54928 -1.45314,1.12293 -0.655021,1.14728 -0.252762,2.61662 0.894519,3.27164 0.989375,0.56486 2.217984,0.34348 2.957958,-0.46354 l 3.379639,1.93063 0.52555,-0.92036 -3.380672,-1.92908 c 0.318823,-1.04755 -0.114519,-2.219 -1.103809,-2.78381 -0.358524,-0.20469 -0.74811,-0.30598 -1.134814,-0.31367 z"
         id="path15271" />
      <path
         style="color:#000000;font-style:normal;font-variant:normal;font-weight:normal;font-stretch:normal;font-size:medium;line-height:normal;font-family:sans-serif;font-variant-ligatures:normal;font-variant-position:normal;font-variant-caps:normal;font-variant-numeric:normal;font-variant-alternates:normal;font-feature-settings:normal;text-indent:0;text-align:start;text-decoration:none;text-decoration-line:none;text-decoration-style:solid;text-decoration-color:#000000;letter-spacing:normal;word-spacing:normal;text-transform:none;writing-mode:lr-tb;direction:ltr;text-orientation:mixed;dominant-baseline:auto;baseline-shift:baseline;text-anchor:start;white-space:normal;shape-padding:0;clip-rule:nonzero;display:inline;overflow:visible;visibility:visible;opacity:1;isolation:auto;mix-blend-mode:normal;color-interpolation:sRGB;color-interpolation-filters:linearRGB;solid-color:#000000;solid-opacity:1;vector-effect:none;fill:#f58025;fill-opacity:1;fill-rule:nonzero;stroke:none;stroke-width:1.0583334;stroke-linecap:butt;stroke-linejoin:miter;stroke-miterlimit:4;stroke-dasharray:none;stroke-dashoffset:0;stroke-opacity:1;color-rendering:auto;image-rendering:auto;shape-rendering:auto;text-rendering:auto;enable-background:accumulate"
         d="m -87.76562,485.59993 c -0.232023,-0.005 -0.462899,0.0246 -0.685228,0.0853 -0.592881,0.16193 -1.123567,0.54928 -1.451076,1.12293 -0.655021,1.14728 -0.254828,2.61661 0.892453,3.27163 0.989285,0.56482 2.218476,0.34331 2.958476,-0.46353 l 3.453535,1.97145 0.525549,-0.91829 -3.454569,-1.973 c 0.318265,-1.04732 -0.114824,-2.21814 -1.10381,-2.78278 -0.358524,-0.2047 -0.748625,-0.30599 -1.13533,-0.31368 z"
         id="path15273" />
      <path
         style="color:#000000;font-style:normal;font-variant:normal;font-weight:normal;font-stretch:normal;font-size:medium;line-height:normal;font-family:sans-serif;font-variant-ligatures:normal;font-variant-position:normal;font-variant-caps:normal;font-variant-numeric:normal;font-variant-alternates:normal;font-feature-settings:normal;text-indent:0;text-align:start;text-decoration:none;text-decoration-line:none;text-decoration-style:solid;text-decoration-color:#000000;letter-spacing:normal;word-spacing:normal;text-transform:none;writing-mode:lr-tb;direction:ltr;text-orientation:mixed;dominant-baseline:auto;baseline-shift:baseline;text-anchor:start;white-space:normal;shape-padding:0;clip-rule:nonzero;display:inline;overflow:visible;visibility:visible;opacity:1;isolation:auto;mix-blend-mode:normal;color-interpolation:sRGB;color-interpolation-filters:linearRGB;solid-color:#000000;solid-opacity:1;vector-effect:none;fill:#e77500;fill-opacity:1;fill-rule:evenodd;stroke:none;stroke-width:0.42333332pt;stroke-linecap:butt;stroke-linejoin:miter;stroke-miterlimit:4;stroke-dasharray:none;stroke-dashoffset:0;stroke-opacity:1;color-rendering:auto;image-rendering:auto;shape-rendering:auto;text-rendering:auto;enable-background:accumulate"
         d="m -82.37661,488.73004 c -1.3211,0 -2.40039,1.07734 -2.40039,2.39844 0,1.3211 1.07929,2.39844 2.40039,2.39844 1.321101,0 2.398438,-1.07734 2.398438,-2.39844 0,-1.3211 -1.077337,-2.39844 -2.398438,-2.39844 z"
         id="path15275" />
      <g
         transform="translate(-117.57781,222.69485)"
         id="g15281">
        <g
           aria-label="Ï"
           style="font-style:italic;font-variant:normal;font-weight:bold;font-stretch:normal;font-size:29.63333321px;line-height:1.25;font-family:'DejaVu Sans';-inkscape-font-specification:'DejaVu Sans Bold Italic';letter-spacing:0px;word-spacing:0px;fill:#e77500;fill-opacity:1;stroke:#e77500;stroke-width:1.05833328;stroke-linecap:round;stroke-linejoin:round;stroke-miterlimit:4;stroke-dasharray:none;stroke-opacity:1"
           id="text15279">
          <path
             style="color:#000000;font-style:italic;font-variant:normal;font-weight:bold;font-stretch:normal;font-size:22.57777786px;line-height:1.25;font-family:'DejaVu Sans';-inkscape-font-specification:'DejaVu Sans Bold Italic';font-variant-ligatures:normal;font-variant-position:normal;font-variant-caps:normal;font-variant-numeric:normal;font-variant-alternates:normal;font-feature-settings:normal;text-indent:0;text-align:start;text-decoration:none;text-decoration-line:none;text-decoration-style:solid;text-decoration-color:#000000;letter-spacing:0px;word-spacing:0px;text-transform:none;writing-mode:lr-tb;direction:ltr;text-orientation:mixed;dominant-baseline:auto;baseline-shift:baseline;text-anchor:start;white-space:normal;shape-padding:0;clip-rule:nonzero;display:inline;overflow:visible;visibility:visible;opacity:1;isolation:auto;mix-blend-mode:normal;color-interpolation:sRGB;color-interpolation-filters:linearRGB;solid-color:#000000;solid-opacity:1;vector-effect:none;fill:#e77500;fill-opacity:1;fill-rule:nonzero;stroke:none;stroke-width:1.05833328;stroke-linecap:round;stroke-linejoin:round;stroke-miterlimit:4;stroke-dasharray:none;stroke-dashoffset:0;stroke-opacity:1;color-rendering:auto;image-rendering:auto;shape-rendering:auto;text-rendering:auto;enable-background:accumulate"
             d="m 50.873047,272.39844 c -0.645365,0 -1.44225,0.11588 -2.419922,0.33398 -1.078467,0.24058 -2.229701,0.88977 -3.501953,1.91211 -1.359305,1.09388 -2.233288,2.75805 -2.646484,4.9082 l -2.072266,10.64844 c -0.06398,0.32693 0.186395,0.63096 0.519531,0.63086 h 3.947266 c 0.253201,6e-5 0.470974,-0.17923 0.519531,-0.42773 l 1.064453,-5.49805 c 0.850835,0.92022 1.904314,1.54883 3.244141,1.54883 1.665316,0 3.163849,-0.66194 4.429687,-1.86524 6.9e-4,-6.5e-4 0.0013,-10e-4 0.002,-0.002 0.05659,-0.0259 0.10816,-0.0616 0.152344,-0.10547 3.75e-4,-3.7e-4 -3.75e-4,-0.002 0,-0.002 h 0.002 c 1.291403,-1.28441 2.131746,-2.94706 2.515625,-4.93555 0.144917,-0.73984 0.21875,-1.42287 0.21875,-2.05273 0,-1.21086 -0.275034,-2.23977 -0.867187,-3.0293 -0.0013,-0.002 -0.0026,-0.004 -0.0039,-0.006 -0.933354,-1.20693 -2.232933,-1.90273 -3.771484,-2.02344 h -0.002 c -0.302523,-0.0245 -0.736366,-0.0351 -1.330078,-0.0351 z m -0.738281,3.95898 c 0.580196,0 0.908943,0.14357 1.132812,0.39649 0.223869,0.25291 0.376953,0.68894 0.376953,1.3789 0,0.34626 -0.04246,0.75026 -0.132812,1.20899 -6.68e-4,6.6e-4 -0.0013,0.001 -0.002,0.002 -0.215563,1.11258 -0.583817,1.91157 -1.060547,2.43164 -6.72e-4,10e-4 -0.0013,0.003 -0.002,0.004 -0.469477,0.51889 -0.996535,0.75195 -1.712891,0.75195 -0.713544,0 -1.058477,-0.1976 -1.308594,-0.6582 -0.146749,-0.2843 -0.224609,-0.61146 -0.224609,-1.00782 0,-0.43537 0.04121,-0.87509 0.123047,-1.32031 0.215233,-1.10394 0.586546,-1.89894 1.070312,-2.41992 6.68e-4,-6.6e-4 0.0013,-10e-4 0.002,-0.002 0.485672,-0.52926 1.023459,-0.76563 1.738282,-0.76563 z"
             id="path15313" />
        </g>
      </g>
    </g>
  </g>
</svg>
